# xmcd
#
# Track frame offsets:
#	150
#	16347
#	30777
#	45820
#	65170
#	79402
#	94070
#	110852
#	124797
#	140912
#	156685
#	171562
#	186442
#	200457
#
# Disc length: 2863 seconds
#
# Revision: 2
# Processed by: cddbd v1.5.2PL0 Copyright (c) Steve Scherf et al.
# Submitted via: EZCDAudioConverter 7.1.0.1
#
DISCID=ce0b2d0e
DTITLE=Smile.dk - Future Girls
DYEAR=2000
DGENRE=
TTITLE0=Future Girls
TTITLE1=Doo-Be-Di-Boy
TTITLE2=Hollywood
TTITLE3=I'm Counting on You
TTITLE4=Dancing All Alone (Dam di Do)
TTITLE5=Together
TTITLE6=Heal My Brooken Heart
TTITLE7=Kissy Kissy
TTITLE8=Love and Devotion
TTITLE9=Don't Let Go
TTITLE10=Like a Dragonfly
TTITLE11=Do You?
TTITLE12=Doo-Be-Di-Boy
TTITLE13=Butterfly [Anaconda Mix]
EXTD=
EXTT0=
EXTT1=
EXTT2=
EXTT3=
EXTT4=
EXTT5=
EXTT6=
EXTT7=
EXTT8=
EXTT9=
EXTT10=
EXTT11=
EXTT12=
EXTT13=
PLAYORDER=
